<svg xmlns="http://www.w3.org/2000/svg" width="450.0" xmlns:xlink="http://www.w3.org/1999/xlink" viewBox="-0.75 -0.5 1.5 1.0" height="300.0"><style>svg {
  color-scheme: light dark;
}
{
  .canvas g, .title g, .axisbar g, .ticktext g, .tickglyph g, .ticklines g, .legendContent g text {
    fill: #0d0d0d;
  }
  .ticklines g, .tickglyph g, .legendBorder g {
    stroke: #0d0d0d;
  }
  .legendBorder g {
    fill: #f0f0f0;
  }
}
@media (prefers-color-scheme:dark) {
  .canvas g, .title g, .axisbar g, .ticktext g, .tickglyph g, .ticklines g, .legendContent g text {
    fill: #f0f0f0;
  }
  .ticklines g, .tickglyph g, .legendBorder g {
    stroke: #f0f0f0;
  }
  .legendBorder g {
    fill: #0d0d0d;
  }
}</style><g class="chart"><g class="line"><g fill="none" stroke="rgb(78%, 53%, 85%)" stroke-width="1.5e-2" stroke-opacity="1.0"><polyline points="-0.6084183673469388,0.32276340267207837
0.36560760667903525,-8.312193472010831e-2"/></g><g fill="none" stroke="rgb(22%, 71%, 25%)" stroke-width="1.5e-2" stroke-opacity="1.0"><polyline points="-0.4344851576994434,-0.21841704718417065
-0.4344851576994434,0.32276340267207837"/></g><g fill="none" stroke="rgb(0%, 50%, 57%)" stroke-width="1.5e-2" stroke-opacity="1.0"><polyline points="-0.6084183673469388,0.18746829020801614
-0.26055194805194803,0.18746829020801614
8.731447124304259e-2,-0.35371215964823266"/></g><g fill="none" stroke="rgb(20%, 27%, 0%)" stroke-width="1.5e-2" stroke-opacity="1.0"><polyline points="0.2612476808905382,0.18746829020801614
-0.3475185528756958,-1.54743784880772e-2"/></g><g fill="none" stroke="rgb(65%, 63%, 40%)" stroke-width="1.5e-2" stroke-opacity="1.0"><polyline points="0.2612476808905382,-1.54743784880772e-2
-0.3475185528756958,-0.28606460341620166"/></g><g fill="none" stroke="rgb(15%, 34%, 27%)" stroke-width="1.5e-2" stroke-opacity="1.0"><polyline points="0.2612476808905382,-0.15076949095213943
-0.3475185528756958,0.2551158464400473"/></g><g fill="none" stroke="rgb(68%, 40%, 61%)" stroke-width="1.5e-2" stroke-opacity="1.0"><polyline points="-0.4344851576994434,0.2551158464400473
-8.661873840445278e-2,-0.21841704718417065"/></g><g fill="none" stroke="rgb(39%, 16%, 37%)" stroke-width="1.5e-2" stroke-opacity="1.0"><polyline points="-0.5562384044526902,0.11982073397598503
-0.3475185528756958,-0.15076949095213943"/></g></g></g><g class="hud"><g class="frame"><g fill="rgb(100%, 100%, 100%)" stroke="rgb(0%, 0%, 0%)" stroke-width="0.0" fill-opacity="2.0e-2" stroke-opacity="0.0"><rect x="-0.6136363636363635" width="1.048817254174397" y="-0.358785726365635" height="0.6866226957551157"/></g></g><g class="axis"><g class="ticks"><g class="tickglyph"><g fill="rgb(5%, 5%, 5%)" stroke="rgb(5%, 5%, 5%)" stroke-width="4.0e-3" fill-opacity="0.4" stroke-opacity="0.4"><g transform="rotate(-90.0, -0.634508348794063, 0.32276340267207837)"><polyline points="-0.634508348794063,0.3377634026720784
-0.634508348794063,0.30776340267207836"/></g><g transform="rotate(-90.0, -0.634508348794063, 0.2551158464400473)"><polyline points="-0.634508348794063,0.2701158464400473
-0.634508348794063,0.2401158464400473"/></g><g transform="rotate(-90.0, -0.634508348794063, 0.18746829020801614)"><polyline points="-0.634508348794063,0.20246829020801616
-0.634508348794063,0.17246829020801613"/></g><g transform="rotate(-90.0, -0.634508348794063, 0.11982073397598503)"><polyline points="-0.634508348794063,0.13482073397598504
-0.634508348794063,0.10482073397598503"/></g><g transform="rotate(-90.0, -0.634508348794063, 5.2173177743953913e-2)"><polyline points="-0.634508348794063,6.717317774395391e-2
-0.634508348794063,3.7173177743953914e-2"/></g><g transform="rotate(-90.0, -0.634508348794063, -1.54743784880772e-2)"><polyline points="-0.634508348794063,-4.743784880772012e-4
-0.634508348794063,-3.04743784880772e-2"/></g><g transform="rotate(-90.0, -0.634508348794063, -8.312193472010831e-2)"><polyline points="-0.634508348794063,-6.812193472010832e-2
-0.634508348794063,-9.812193472010831e-2"/></g><g transform="rotate(-90.0, -0.634508348794063, -0.15076949095213943)"><polyline points="-0.634508348794063,-0.13576949095213942
-0.634508348794063,-0.16576949095213944"/></g><g transform="rotate(-90.0, -0.634508348794063, -0.21841704718417065)"><polyline points="-0.634508348794063,-0.20341704718417064
-0.634508348794063,-0.23341704718417067"/></g><g transform="rotate(-90.0, -0.634508348794063, -0.28606460341620166)"><polyline points="-0.634508348794063,-0.27106460341620164
-0.634508348794063,-0.30106460341620167"/></g><g transform="rotate(-90.0, -0.634508348794063, -0.35371215964823266)"><polyline points="-0.634508348794063,-0.33871215964823265
-0.634508348794063,-0.3687121596482327"/></g></g></g><g class="ticktext"><g fill="rgb(5%, 5%, 5%)" stroke="none" stroke-width="0.0" font-size="3.478664192949907e-2" fill-opacity="1.0" text-anchor="end"><text x="-0.6595547309833024" y="0.3320649416539827">0.00</text><text x="-0.6595547309833024" y="0.2644173854219516">0.50</text><text x="-0.6595547309833024" y="0.19676982918992042">1.00</text><text x="-0.6595547309833024" y="0.1291222729578893">1.50</text><text x="-0.6595547309833024" y="6.147471672585825e-2">2.00</text><text x="-0.6595547309833024" y="-6.172839506172867e-3">2.50</text><text x="-0.6595547309833024" y="-7.382039573820409e-2">3.00</text><text x="-0.6595547309833024" y="-0.1414679519702351">3.50</text><text x="-0.6595547309833024" y="-0.2091155082022662">4.00</text><text x="-0.6595547309833024" y="-0.27676306443429743">4.50</text><text x="-0.6595547309833024" y="-0.34441062066632844">5.00</text></g></g><g class="ticklines"><g fill="none" stroke="rgb(5%, 5%, 5%)" stroke-width="5.0e-3" stroke-opacity="5.0e-2"><polyline points="-0.6084183673469388,0.32276340267207837
0.43518089053803344,0.32276340267207837"/><polyline points="-0.6084183673469388,0.2551158464400473
0.43518089053803344,0.2551158464400473"/><polyline points="-0.6084183673469388,0.18746829020801614
0.43518089053803344,0.18746829020801614"/><polyline points="-0.6084183673469388,0.11982073397598503
0.43518089053803344,0.11982073397598503"/><polyline points="-0.6084183673469388,5.2173177743953913e-2
0.43518089053803344,5.2173177743953913e-2"/><polyline points="-0.6084183673469388,-1.54743784880772e-2
0.43518089053803344,-1.54743784880772e-2"/><polyline points="-0.6084183673469388,-8.312193472010831e-2
0.43518089053803344,-8.312193472010831e-2"/><polyline points="-0.6084183673469388,-0.15076949095213943
0.43518089053803344,-0.15076949095213943"/><polyline points="-0.6084183673469388,-0.21841704718417065
0.43518089053803344,-0.21841704718417065"/><polyline points="-0.6084183673469388,-0.28606460341620166
0.43518089053803344,-0.28606460341620166"/><polyline points="-0.6084183673469388,-0.35371215964823266
0.43518089053803344,-0.35371215964823266"/></g></g></g><g class="axisbar"><g fill="rgb(5%, 5%, 5%)" stroke="rgb(0%, 0%, 0%)" stroke-width="0.0" fill-opacity="0.4" stroke-opacity="0.0"><rect x="-0.6233766233766234" width="2.782931354359919e-3" y="-0.3550651107728734" height="0.6791814645695924"/></g></g></g><g class="axis"><g class="ticks"><g class="tickglyph"><g fill="rgb(5%, 5%, 5%)" stroke="rgb(5%, 5%, 5%)" stroke-width="4.0e-3" fill-opacity="0.4" stroke-opacity="0.4"><polyline points="-0.6084183673469388,0.36313123625909005
-0.6084183673469388,0.33313123625909"/><polyline points="-0.4344851576994434,0.36313123625909005
-0.4344851576994434,0.33313123625909"/><polyline points="-0.26055194805194803,0.36313123625909005
-0.26055194805194803,0.33313123625909"/><polyline points="-8.661873840445278e-2,0.36313123625909005
-8.661873840445278e-2,0.33313123625909"/><polyline points="8.731447124304259e-2,0.36313123625909005
8.731447124304259e-2,0.33313123625909"/><polyline points="0.2612476808905382,0.36313123625909005
0.2612476808905382,0.33313123625909"/><polyline points="0.43518089053803344,0.36313123625909005
0.43518089053803344,0.33313123625909"/></g></g><g class="ticktext"><g fill="rgb(5%, 5%, 5%)" stroke="none" stroke-width="0.0" font-size="3.478664192949907e-2" fill-opacity="1.0" text-anchor="middle"><text x="-0.6084183673469388" y="0.3910874344664298">0.00</text><text x="-0.4344851576994434" y="0.3910874344664298">0.50</text><text x="-0.26055194805194803" y="0.3910874344664298">1.00</text><text x="-8.661873840445278e-2" y="0.3910874344664298">1.50</text><text x="8.731447124304259e-2" y="0.3910874344664298">2.00</text><text x="0.2612476808905382" y="0.3910874344664298">2.50</text><text x="0.43518089053803344" y="0.3910874344664298">3.00</text></g></g><g class="ticklines"><g fill="none" stroke="rgb(5%, 5%, 5%)" stroke-width="5.0e-3" stroke-opacity="5.0e-2"><polyline points="-0.6084183673469388,0.32276340267207837
-0.6084183673469388,-0.35371215964823266"/><polyline points="-0.4344851576994434,0.32276340267207837
-0.4344851576994434,-0.35371215964823266"/><polyline points="-0.26055194805194803,0.32276340267207837
-0.26055194805194803,-0.35371215964823266"/><polyline points="-8.661873840445278e-2,0.32276340267207837
-8.661873840445278e-2,-0.35371215964823266"/><polyline points="8.731447124304259e-2,0.32276340267207837
8.731447124304259e-2,-0.35371215964823266"/><polyline points="0.2612476808905382,0.32276340267207837
0.2612476808905382,-0.35371215964823266"/><polyline points="0.43518089053803344,0.32276340267207837
0.43518089053803344,-0.35371215964823266"/></g></g></g><g class="axisbar"><g fill="rgb(5%, 5%, 5%)" stroke="rgb(0%, 0%, 0%)" stroke-width="0.0" fill-opacity="0.4" stroke-opacity="0.0"><rect x="-0.6098098330241187" width="1.0463821892393321" y="0.3346017250126838" height="2.7059022492812446e-3"/></g></g></g><g class="title"><g fill="rgb(5%, 5%, 5%)" stroke="none" stroke-width="0.0" font-size="6.957328385899814e-2" fill-opacity="1.0" text-anchor="middle"><text x="-0.12784090909090917" y="-0.4188229325215628">paletter check</text></g></g><g class="title"><g fill="rgb(5%, 5%, 5%)" stroke="none" stroke-width="0.0" font-size="4.174397031539888e-2" fill-opacity="1.0" text-anchor="end"><text x="0.46648886827458247" y="0.4607644173854219">Made with love and chart-svg</text></g></g><g class="legend"><g class="legendBorder"><g fill="rgb(0%, 0%, 0%)" stroke="rgb(5%, 5%, 5%)" stroke-width="2.5e-3" fill-opacity="0.0" stroke-opacity="1.0"><rect x="0.38300092764378446" width="0.33569109461966606" y="-0.22687299171317465" height="0.44985624894300713"/></g></g><g class="legendContent"><g fill="rgb(5%, 5%, 5%)" stroke="none" stroke-width="0.0" font-size="3.478664192949907e-2" fill-opacity="1.0" text-anchor="start"><text x="0.40039424860853434" y="0.1959242347370201">pallete1 7</text></g><g fill="none" stroke="rgb(39%, 16%, 37%)" stroke-width="1.5e-2" stroke-opacity="1.0"><polyline points="0.5917207792207793,0.18746829020801614
0.6960807050092765,0.18746829020801614"/></g><g fill="rgb(5%, 5%, 5%)" stroke="none" stroke-width="0.0" font-size="3.478664192949907e-2" fill-opacity="1.0" text-anchor="start"><text x="0.40039424860853434" y="0.1418061897513952">pallete1 6</text></g><g fill="none" stroke="rgb(68%, 40%, 61%)" stroke-width="1.5e-2" stroke-opacity="1.0"><polyline points="0.5917207792207793,0.13335024522239125
0.6960807050092765,0.13335024522239125"/></g><g fill="rgb(5%, 5%, 5%)" stroke="none" stroke-width="0.0" font-size="3.478664192949907e-2" fill-opacity="1.0" text-anchor="start"><text x="0.40039424860853434" y="8.768814476577025e-2">pallete1 5</text></g><g fill="none" stroke="rgb(15%, 34%, 27%)" stroke-width="1.5e-2" stroke-opacity="1.0"><polyline points="0.5917207792207793,7.923220023676641e-2
0.6960807050092765,7.923220023676641e-2"/></g><g fill="rgb(5%, 5%, 5%)" stroke="none" stroke-width="0.0" font-size="3.478664192949907e-2" fill-opacity="1.0" text-anchor="start"><text x="0.40039424860853434" y="3.357009978014541e-2">pallete1 4</text></g><g fill="none" stroke="rgb(65%, 63%, 40%)" stroke-width="1.5e-2" stroke-opacity="1.0"><polyline points="0.5917207792207793,2.5114155251141468e-2
0.6960807050092765,2.5114155251141468e-2"/></g><g fill="rgb(5%, 5%, 5%)" stroke="none" stroke-width="0.0" font-size="3.478664192949907e-2" fill-opacity="1.0" text-anchor="start"><text x="0.40039424860853434" y="-2.0547945205479534e-2">pallete1 3</text></g><g fill="none" stroke="rgb(20%, 27%, 0%)" stroke-width="1.5e-2" stroke-opacity="1.0"><polyline points="0.5917207792207793,-2.9003889734483534e-2
0.6960807050092765,-2.9003889734483534e-2"/></g><g fill="rgb(5%, 5%, 5%)" stroke="none" stroke-width="0.0" font-size="3.478664192949907e-2" fill-opacity="1.0" text-anchor="start"><text x="0.40039424860853434" y="-7.466599019110443e-2">pallete1 2</text></g><g fill="none" stroke="rgb(0%, 50%, 57%)" stroke-width="1.5e-2" stroke-opacity="1.0"><polyline points="0.5917207792207793,-8.312193472010831e-2
0.6960807050092765,-8.312193472010831e-2"/></g><g fill="rgb(5%, 5%, 5%)" stroke="none" stroke-width="0.0" font-size="3.478664192949907e-2" fill-opacity="1.0" text-anchor="start"><text x="0.40039424860853434" y="-0.12878403517672932">pallete1 1</text></g><g fill="none" stroke="rgb(22%, 71%, 25%)" stroke-width="1.5e-2" stroke-opacity="1.0"><polyline points="0.5917207792207793,-0.13723997970573332
0.6960807050092765,-0.13723997970573332"/></g><g fill="rgb(5%, 5%, 5%)" stroke="none" stroke-width="0.0" font-size="3.478664192949907e-2" fill-opacity="1.0" text-anchor="start"><text x="0.40039424860853434" y="-0.18290208016235432">pallete1 0</text></g><g fill="none" stroke="rgb(78%, 53%, 85%)" stroke-width="1.5e-2" stroke-opacity="1.0"><polyline points="0.5917207792207793,-0.1913580246913581
0.6960807050092765,-0.1913580246913581"/></g></g></g><g class="frame"><g fill="rgb(100%, 100%, 100%)" stroke="rgb(0%, 0%, 0%)" stroke-width="0.0" fill-opacity="2.0e-2" stroke-opacity="0.0"><rect x="-0.75" width="1.5" y="-0.5" height="1.0"/></g></g></g></svg>